<?xml version="1.0" encoding="iso-8859-1"?>
<!-- Generator: Adobe Illustrator 19.0.0, SVG Export Plug-In . SVG Version: 6.00 Build 0)  -->
<svg version="1.1" id="Capa_1" xmlns="http://www.w3.org/2000/svg" xmlns:xlink="http://www.w3.org/1999/xlink" x="0px" y="0px"
	 viewBox="0 0 494 494" style="enable-background:new 0 0 494 494;" xml:space="preserve">
<g>
	<g>
		<g>
			<path d="M195.241,289.361l-40.805,53.588c-1.067,1.399-2.565,2.407-4.262,2.87l-68.26,18.648
				c-9.343,2.567-15.829,11.049-15.856,20.739v24.924c0,11.854,9.692,21.87,21.547,21.87h5.006
				c2.519-26.289,25.872-45.558,52.161-43.039c22.804,2.185,40.854,20.236,43.039,43.039h145.708
				c2.519-26.289,25.872-45.558,52.161-43.039c22.804,2.185,40.854,20.236,43.039,43.039h9.923c11.856,0,21.416-10.016,21.416-21.87
				v-28.449c0.006-8.421-4.903-16.071-12.561-19.574l-36.747-16.724c-1.429-0.652-2.635-1.709-3.469-3.041l-31.707-50.629
				c-5.703-9.174-15.75-14.741-26.553-14.713H220.17C210.393,277.032,201.184,281.598,195.241,289.361z"/>
			<path d="M108.388,436.188c0.001,17.576,14.249,31.824,31.825,31.823c17.576-0.001,31.824-14.249,31.823-31.825
				c-0.001-17.576-14.249-31.824-31.825-31.823C122.643,404.383,108.406,418.62,108.388,436.188z"/>
			<path d="M349.296,436.188c0.001,17.576,14.249,31.824,31.825,31.823c17.576-0.001,31.824-14.249,31.823-31.825
				c-0.001-17.576-14.249-31.823-31.824-31.823C363.551,404.383,349.315,418.62,349.296,436.188z"/>
			<path d="M477.943,478H24.058V68.827C24.058,39.494,48.037,16,77.37,16h137.555c26.447-0.044,48.886,19.399,52.608,45.582
				c-32.804,4.228-57.391,32.117-57.475,65.192v7.04c0.041,4.477,3.64,8.108,8.117,8.186h115.894
				c4.452-0.089,8.008-3.733,7.989-8.186v-7.04c-0.054-33.429-25.149-61.513-58.362-65.313C279.789,26.439,250.163-0.038,214.925,0
				H77.37C39.214,0,8.058,30.672,8.058,68.827v417.542c0,4.418,3.7,7.631,8.115,7.631h461.77c4.418,0,8-3.582,8-8
				S482.361,478,477.943,478z"/>
			<path d="M276.058,188.389c4.418,0,8-3.582,8-8v-17.33c0-4.418-3.582-8-8-8s-8,3.582-8,8v17.33
				C268.058,184.807,271.639,188.389,276.058,188.389z"/>
			<path d="M325.058,188.389c4.418,0,8-3.582,8-8v-17.33c0-4.418-3.582-8-8-8s-8,3.582-8,8v17.33
				C317.058,184.807,320.639,188.389,325.058,188.389z"/>
			<path d="M227.058,188.389c4.418,0,8-3.582,8-8v-17.33c0-4.418-3.582-8-8-8s-8,3.582-8,8v17.33
				C219.058,184.807,222.639,188.389,227.058,188.389z"/>
			<path d="M268.058,229.129c0,4.418,3.582,8,8,8s8-3.582,8-8V211.8c0-4.418-3.582-8-8-8s-8,3.582-8,8V229.129z"/>
			<path d="M317.058,229.129c0,4.418,3.582,8,8,8s8-3.582,8-8V211.8c0-4.418-3.582-8-8-8s-8,3.582-8,8V229.129z"/>
			<path d="M219.058,229.129c0,4.418,3.582,8,8,8s8-3.582,8-8V211.8c0-4.418-3.582-8-8-8s-8,3.582-8,8V229.129z"/>
		</g>
	</g>
</g>
<g>
</g>
<g>
</g>
<g>
</g>
<g>
</g>
<g>
</g>
<g>
</g>
<g>
</g>
<g>
</g>
<g>
</g>
<g>
</g>
<g>
</g>
<g>
</g>
<g>
</g>
<g>
</g>
<g>
</g>
</svg>
