<svg viewBox="0 -77 512.001 512" xmlns="http://www.w3.org/2000/svg"><path d="m503.042969 177.101562-4.433594-12.0625c-6.925781-18.828124-25.054687-31.480468-45.113281-31.480468h-3.40625l-6.167969-13.175782h35.589844c16.601562 0 30.105469-13.507812 30.105469-30.105468v-3.214844c0-9.609375-7.816407-17.429688-17.425782-17.429688h-41.199218c-9.605469 0-17.425782 7.820313-17.425782 17.429688v.445312h-5.027344l-32.199218-68.808593c-5.316406-11.359375-16.855469-18.699219-29.398438-18.699219h-24.785156c-4.140625 0-7.5 3.359375-7.5 7.5s3.359375 7.5 7.5 7.5h24.785156c5.253906 0 10.171875 2.402344 13.445313 6.34375h-248.773438c3.273438-3.941406 8.191407-6.34375 13.445313-6.34375h166.785156c4.144531 0 7.5-3.359375 7.5-7.5s-3.355469-7.5-7.5-7.5h-166.785156c-12.542969 0-24.082032 7.339844-29.398438 18.699219l-10.878906 23.25c-1.757812 3.75-.136719 8.214843 3.613281 9.972656 1.027344.480469 2.109375.707031 3.175781.707031 2.820313 0 5.523438-1.597656 6.796876-4.320312l5.597656-11.960938h264.070312l45.496094 97.210938h-89.339844l-9.980468-7.195313h64.5c4.140624 0 7.5-3.355469 7.5-7.5 0-4.140625-3.359376-7.5-7.5-7.5h-126.6875c-4.144532 0-7.5 3.359375-7.5 7.5 0 4.144531 3.355468 7.5 7.5 7.5h36.535156l9.980468 7.195313h-132.425781l-9.980469-7.195313h64.5c4.140626 0 7.5-3.355469 7.5-7.5 0-4.140625-3.359374-7.5-7.5-7.5h-126.6875c-4.140624 0-7.5 3.359375-7.5 7.5 0 4.144531 3.359376 7.5 7.5 7.5h36.535157l9.984375 7.195313h-81.996094l25.710938-54.9375c1.757812-3.753906.140624-8.21875-3.613282-9.972656-3.75-1.757813-8.214844-.140626-9.972656 3.613281l-7.132812 15.246093h-5.027344v-.445312c0-9.609375-7.820313-17.429688-17.429688-17.429688h-41.195312c-9.609375 0-17.425782 7.820313-17.425782 17.429688v3.214844c0 16.597656 13.503907 30.105468 30.105469 30.105468h35.589844l-6.167969 13.175782h-3.40625c-20.058594 0-38.1875 12.652344-45.113281 31.480468l-4.433594 12.0625c-5.304687 2.6875-8.957031 8.183594-8.957031 14.523438v90.316406c0 11.160156 6.800781 20.757813 16.472656 24.878906v31.324219c0 11.261719 9.160156 20.425781 20.421875 20.425781h35.945313c11.261718 0 20.425781-9.164062 20.425781-20.425781v-29.179687h42.667969c.023437 0 .042968.003906.066406.003906s.046875-.003906.070312-.003906h177.109376c4.140624 0 7.5-3.359375 7.5-7.5s-3.359376-7.5-7.5-7.5h-169.679688v-10.605469c0-2.40625 1.960938-4.359375 4.371094-4.359375h216.257812c2.410156 0 4.371094 1.953125 4.371094 4.359375v10.605469h-25.011719c-4.140625 0-7.5 3.359375-7.5 7.5s3.359375 7.5 7.5 7.5h32.445313c.019531 0 .042968.003906.066406.003906s.046875-.003906.066406-.003906h42.667969v29.179687c0 11.261719 9.164063 20.425781 20.425781 20.425781h35.945313c11.261719 0 20.425781-9.164062 20.425781-20.425781v-31.324219c9.671875-4.121093 16.46875-13.71875 16.46875-24.878906v-90.316406c0-6.339844-3.652344-11.835938-8.957031-14.523438zm-61.976563-74.59375c4.144532 0 7.5-3.359374 7.5-7.5v-7.945312c0-1.339844 1.089844-2.429688 2.425782-2.429688h41.199218c1.335938 0 2.425782 1.089844 2.425782 2.429688v3.214844c0 8.328125-6.777344 15.105468-15.105469 15.105468h-42.609375l-1.34375-2.875zm-408.578125 2.875c-8.328125 0-15.105469-6.777343-15.105469-15.105468v-3.214844c0-1.339844 1.089844-2.429688 2.425782-2.429688h41.199218c1.335938 0 2.425782 1.089844 2.425782 2.429688v7.945312c0 4.140626 3.355468 7.5 7.5 7.5h5.507812l-1.34375 2.875zm26.015625 43.175782h394.992188c13.800781 0 26.269531 8.703125 31.035156 21.65625l1.882812 5.121094h-460.828124l1.882812-5.121094c4.765625-12.953125 17.234375-21.65625 31.035156-21.65625zm19.761719 189.585937c0 2.988281-2.433594 5.425781-5.425781 5.425781h-35.945313c-2.988281 0-5.421875-2.4375-5.421875-5.425781v-29.179687h46.792969zm396.839844 5.425781h-35.945313c-2.992187 0-5.425781-2.4375-5.425781-5.425781v-29.179687h46.792969v29.179687c0 2.988281-2.429688 5.425781-5.421875 5.425781zm21.894531-61.628906c0 6.628906-5.394531 12.023438-12.019531 12.023438h-101.480469v-10.605469c0-10.675781-8.6875-19.359375-19.371094-19.359375h-216.257812c-10.683594 0-19.371094 8.683594-19.371094 19.359375v10.605469h-101.476562c-6.628907 0-12.023438-5.394532-12.023438-12.023438v-90.316406c0-.710938.578125-1.289062 1.289062-1.289062h479.421876c.710937 0 1.289062.578124 1.289062 1.289062zm0 0"/><path d="m474.144531 232.5c0-18.054688-14.691406-32.742188-32.742187-32.742188h-370.804688c-18.050781 0-32.742187 14.6875-32.742187 32.742188 0 18.050781 14.691406 32.742188 32.742187 32.742188 18.054688 0 32.742188-14.6875 32.742188-32.742188 0-6.535156-1.933594-12.625-5.246094-17.742188h30.605469c-.117188.820313-.199219 1.648438-.199219 2.5v4.332032c0 16.722656 13.605469 30.332031 30.332031 30.332031h194.335938c16.726562 0 30.332031-13.605469 30.332031-30.332031v-4.332032c0-.851562-.082031-1.679687-.199219-2.5h30.601563c-3.3125 5.117188-5.242188 11.207032-5.242188 17.742188 0 18.054688 14.6875 32.742188 32.742188 32.742188 18.050781 0 32.742187-14.6875 32.742187-32.742188zm-385.804687 0c0 9.78125-7.957032 17.742188-17.742188 17.742188-9.78125 0-17.742187-7.960938-17.742187-17.742188 0-9.785156 7.960937-17.742188 17.742187-17.742188 9.785156 0 17.742188 7.957032 17.742188 17.742188zm280.160156-15.242188v4.332032c0 8.453125-6.878906 15.332031-15.332031 15.332031h-194.335938c-8.453125 0-15.332031-6.878906-15.332031-15.332031v-4.332032c0-1.378906 1.121094-2.5 2.5-2.5h220c1.378906 0 2.5 1.121094 2.5 2.5zm72.902344 32.984376c-9.785156 0-17.742188-7.960938-17.742188-17.742188 0-9.785156 7.957032-17.742188 17.742188-17.742188 9.78125 0 17.738281 7.957032 17.738281 17.742188 0 9.78125-7.957031 17.742188-17.738281 17.742188zm0 0"/><path d="m45.441406 263.992188h-.082031c-.015625 0-.03125 0-.042969 0-4.121094 0-7.433594 3.332031-7.460937 7.457031-.023438 4.140625 3.355469 7.519531 7.5 7.542969h.042969c4.121093 0 7.476562-3.328126 7.5-7.453126.023437-4.144531-3.3125-7.523437-7.457032-7.546874zm0 0"/><path d="m95.925781 263.992188h-.082031c-.015625 0-.03125 0-.046875 0-4.121094 0-7.433594 3.332031-7.457031 7.457031-.023438 4.140625 3.355468 7.519531 7.5 7.542969h.042968c4.121094 0 7.476563-3.328126 7.5-7.453126.023438-4.144531-3.316406-7.523437-7.457031-7.546874zm0 0"/><path d="m416.246094 263.992188h-.085938c-.011718 0-.027344 0-.042968 0-4.121094 0-7.433594 3.332031-7.457032 7.457031-.023437 4.140625 3.355469 7.519531 7.496094 7.542969h.046875c4.121094 0 7.472656-3.328126 7.496094-7.453126.027343-4.144531-3.3125-7.523437-7.453125-7.546874zm0 0"/><path d="m466.726562 263.992188h-.082031c-.015625 0-.027343 0-.042969 0-4.121093 0-7.4375 3.332031-7.457031 7.457031-.027343 4.140625 3.351563 7.519531 7.496094 7.542969h.042969c4.121094 0 7.476562-3.328126 7.5-7.453126.023437-4.144531-3.3125-7.523437-7.457032-7.546874zm0 0"/></svg>