<?xml version="1.0" standalone="no"?>
<!DOCTYPE svg PUBLIC "-//W3C//DTD SVG 20010904//EN"
 "http://www.w3.org/TR/2001/REC-SVG-20010904/DTD/svg10.dtd">
<svg version="1.0" xmlns="http://www.w3.org/2000/svg"
 width="156.000000pt" height="156.000000pt" viewBox="0 0 156.000000 156.000000"
 preserveAspectRatio="xMidYMid meet">
<metadata>
Created by potrace 1.15, written by Peter Selinger 2001-2017
</metadata>
<g transform="translate(0.000000,156.000000) scale(0.100000,-0.100000)"
fill="#5629e3" stroke="none">
<path d="M335 1542 c-120 -42 -234 -144 -287 -258 -42 -90 -51 -168 -46 -418
4 -206 6 -225 28 -276 51 -118 132 -208 234 -261 52 -27 65 -39 80 -75 25 -61
131 -172 207 -216 l64 -38 320 0 c290 0 324 2 360 19 40 18 155 118 155 134 0
5 11 23 25 41 13 17 37 59 52 92 l28 59 0 415 c0 386 -1 419 -20 470 -10 30
-24 62 -30 70 -6 8 -17 29 -25 45 -27 54 -121 140 -195 176 l-70 34 -415 2
c-374 3 -420 1 -465 -15z m815 -123 c105 -22 198 -100 248 -207 l27 -57 3
-345 c4 -362 -1 -428 -40 -503 -30 -60 -92 -120 -155 -153 l-58 -29 -245 0
c-237 0 -247 1 -292 23 -26 13 -69 45 -95 70 l-48 47 245 6 c273 6 298 11 384
77 61 46 107 111 130 184 14 47 17 88 14 259 -3 197 -4 206 -30 261 -37 79
-98 142 -177 181 l-66 32 -210 0 c-207 0 -211 0 -267 -27 -76 -35 -148 -104
-184 -175 l-29 -58 -5 -268 -5 -268 -42 36 c-26 22 -55 62 -75 103 l-33 67 0
245 0 245 28 57 c32 64 98 137 148 164 71 37 125 42 456 43 198 1 342 -3 373
-10z m-155 -308 c49 -23 99 -74 119 -123 20 -48 23 -358 4 -422 -8 -25 -31
-59 -59 -87 -64 -65 -99 -71 -384 -67 l-230 3 -3 260 c-2 174 1 273 8 300 17
59 53 100 112 129 50 25 59 26 222 26 145 0 177 -3 211 -19z"/>
<path d="M733 885 c-39 -17 -73 -68 -73 -111 0 -44 39 -97 82 -111 78 -26 158
30 158 110 0 55 -17 86 -60 108 -41 22 -64 23 -107 4z"/>
</g>
</svg>
