<?xml version="1.0" encoding="iso-8859-1"?>
<!-- Generator: Adobe Illustrator 19.0.0, SVG Export Plug-In . SVG Version: 6.00 Build 0)  -->
<svg version="1.1" id="Capa_1" xmlns="http://www.w3.org/2000/svg" xmlns:xlink="http://www.w3.org/1999/xlink" x="0px" y="0px"
	 viewBox="0 0 496 496" style="enable-background:new 0 0 496 496;" xml:space="preserve">
<g>
	<g>
		<path d="M412.432,416H83.568l-50,80h428.864L412.432,416z M62.432,480l25.528-40.848L113.488,480H62.432z M102.36,432h51.192
			l-25.616,40.912L102.36,432z M142.368,480l25.592-40.864L193.512,480H142.368z M182.36,432h51.216l-25.624,40.92L182.36,432z
			 M222.4,480l25.576-40.848L273.544,480H222.4z M262.368,432h51.216l-25.592,40.92L262.368,432z M302.432,480l25.544-40.848
			L353.552,480H302.432z M342.376,432h51.192L368,472.912L342.376,432z M408,439.096L433.568,480H382.44L408,439.096z"/>
	</g>
</g>
<g>
	<g>
		<path d="M154.344,90.344L144,100.688l-32.408-32.416C103.664,60.36,93.136,56,81.944,56C75.792,56,70,57.4,64.736,59.792
			C59.064,47.024,56,33.128,56,18.744V16h40V0H0v16h40v2.744c0,17.792,4.064,34.912,11.52,50.504C44.424,76.76,40,86.816,40,97.936
			c0,11.208,4.36,21.744,12.288,29.656L84.688,160l-10.344,10.344l11.312,11.312l80-80L154.344,90.344z M96,148.688l-32.408-32.416
			C58.696,111.384,56,104.872,56,97.936c0-5.04,1.504-9.704,4-13.688c4.176,6.176,8.952,12.016,14.344,17.408l11.312-11.312
			c-5.064-5.064-9.48-10.592-13.304-16.456C75.328,72.696,78.544,72,81.944,72c6.928,0,13.44,2.696,18.344,7.592l32.4,32.408
			L96,148.688z"/>
	</g>
</g>
<g>
	<g>
		<path d="M400,0v16h40v2.744c0,14.384-3.064,28.28-8.736,41.048C426,57.4,420.208,56,414.056,56
			c-11.192,0-21.728,4.36-29.656,12.28L352,100.688l-10.344-10.344l-11.312,11.312l80,80l11.312-11.312L411.312,160l32.4-32.4
			C451.64,119.68,456,109.152,456,97.936c0-11.12-4.424-21.184-11.52-28.696C451.936,53.656,456,36.528,456,18.744V16h40V0H400z
			 M432.4,116.28L400,148.688L363.312,112l32.4-32.4c4.904-4.904,11.424-7.6,18.344-7.6c3.392,0,6.616,0.696,9.592,1.888
			c-3.824,5.864-8.24,11.392-13.304,16.456l11.312,11.312c5.392-5.392,10.168-11.232,14.344-17.408c2.496,3.984,4,8.656,4,13.688
			C440,104.872,437.304,111.384,432.4,116.28z"/>
	</g>
</g>
<g>
	<g>
		<polygon points="254.648,232.688 342.008,133.28 329.992,122.72 97.992,386.72 110.008,397.28 143.288,359.408 152.256,394.008 
			167.744,389.992 156.048,344.888 244,244.808 331.952,344.888 320.256,389.992 335.744,394.008 344.712,359.408 377.992,397.28 
			390.008,386.72 		"/>
	</g>
</g>
<g>
	<g>
		<rect x="294.592" y="237.163" transform="matrix(0.251 -0.968 0.968 0.251 36.8658 537.9709)" width="142.938" height="16"/>
	</g>
</g>
<g>
	<g>
		<rect x="181.94" y="113.701" transform="matrix(0.7512 -0.6601 0.6601 0.7512 -65.7284 167.9673)" width="16" height="114.938"/>
	</g>
</g>
<g>
	<g>
		<rect x="114.307" y="173.653" transform="matrix(0.968 -0.251 0.251 0.968 -57.9659 38.591)" width="16" height="145.778"/>
	</g>
</g>
<g>
	<g>
		<rect x="448" y="288" width="16" height="16"/>
	</g>
</g>
<g>
	<g>
		<rect x="425.351" y="297.411" transform="matrix(0.7071 -0.7071 0.7071 0.7071 -89.0329 395.8779)" width="16" height="16"/>
	</g>
</g>
<g>
	<g>
		<rect x="416" y="320" width="16" height="16"/>
	</g>
</g>
<g>
	<g>
		<rect x="425.357" y="342.617" transform="matrix(0.7071 -0.7071 0.7071 0.7071 -120.9967 409.1229)" width="16" height="16"/>
	</g>
</g>
<g>
	<g>
		<rect x="448" y="352" width="16" height="16"/>
	</g>
</g>
<g>
	<g>
		<rect x="470.622" y="342.607" transform="matrix(0.707 -0.7072 0.7072 0.707 -107.7185 441.2095)" width="16" height="16"/>
	</g>
</g>
<g>
	<g>
		<rect x="480" y="320" width="16" height="16"/>
	</g>
</g>
<g>
	<g>
		<rect x="470.605" y="297.405" transform="matrix(0.7071 -0.7071 0.7071 0.7071 -75.7739 427.8757)" width="16" height="16"/>
	</g>
</g>
<g>
	<g>
		<rect x="240" width="16" height="16"/>
	</g>
</g>
<g>
	<g>
		<rect x="217.363" y="9.389" transform="matrix(0.707 -0.7072 0.7072 0.707 53.7328 164.4736)" width="16" height="16"/>
	</g>
</g>
<g>
	<g>
		<rect x="208" y="32" width="16" height="16"/>
	</g>
</g>
<g>
	<g>
		<rect x="217.355" y="54.64" transform="matrix(0.7072 -0.707 0.707 0.7072 21.6959 177.6685)" width="16" height="16"/>
	</g>
</g>
<g>
	<g>
		<rect x="240" y="64" width="16" height="16"/>
	</g>
</g>
<g>
	<g>
		<rect x="262.629" y="54.648" transform="matrix(0.707 -0.7072 0.7072 0.707 34.9877 209.7468)" width="16" height="16"/>
	</g>
</g>
<g>
	<g>
		<rect x="272" y="32" width="16" height="16"/>
	</g>
</g>
<g>
	<g>
		<rect x="262.622" y="9.376" transform="matrix(0.7071 -0.7071 0.7071 0.7071 66.9765 196.4483)" width="16" height="16"/>
	</g>
</g>
<g>
	<g>
		<rect x="32" y="296" width="16" height="16"/>
	</g>
</g>
<g>
	<g>
		<rect x="9.359" y="305.336" transform="matrix(0.707 -0.7072 0.7072 0.707 -216.5069 104.0811)" width="16" height="16"/>
	</g>
</g>
<g>
	<g>
		<rect y="328" width="16" height="16"/>
	</g>
</g>
<g>
	<g>
		<rect x="9.375" y="350.617" transform="matrix(0.7071 -0.7071 0.7071 0.7071 -248.4911 117.3224)" width="16" height="16"/>
	</g>
</g>
<g>
	<g>
		<rect x="32" y="360" width="16" height="16"/>
	</g>
</g>
<g>
	<g>
		<rect x="54.618" y="350.622" transform="matrix(0.7071 -0.7071 0.7071 0.7071 -235.2433 149.3155)" width="16" height="16"/>
	</g>
</g>
<g>
	<g>
		<rect x="64" y="328" width="16" height="16"/>
	</g>
</g>
<g>
	<g>
		<rect x="54.612" y="305.376" transform="matrix(0.7071 -0.7071 0.7071 0.7071 -203.2513 136.0588)" width="16" height="16"/>
	</g>
</g>
<g>
</g>
<g>
</g>
<g>
</g>
<g>
</g>
<g>
</g>
<g>
</g>
<g>
</g>
<g>
</g>
<g>
</g>
<g>
</g>
<g>
</g>
<g>
</g>
<g>
</g>
<g>
</g>
<g>
</g>
</svg>
