<?xml version="1.0" encoding="iso-8859-1"?>
<!-- Generator: Adobe Illustrator 19.0.0, SVG Export Plug-In . SVG Version: 6.00 Build 0)  -->
<svg version="1.1" id="Capa_1" xmlns="http://www.w3.org/2000/svg" xmlns:xlink="http://www.w3.org/1999/xlink" x="0px" y="0px"
	 viewBox="0 0 512.002 512.002" style="enable-background:new 0 0 512.002 512.002;" xml:space="preserve">
<g>
	<g>
		<path d="M423.98,341.502h-41.034c-5.523,0-10,4.477-10,10c0,5.523,4.477,10,10,10h41.034c5.523,0,10-4.478,10-10
			C433.98,345.979,429.503,341.502,423.98,341.502z"/>
	</g>
</g>
<g>
	<g>
		<path d="M354.215,341.506h-0.235c-5.523,0-10,4.478-10,10c-0.001,5.522,4.477,10,10,10h0.235c5.523,0,10-4.477,10-10
			C364.215,345.984,359.738,341.506,354.215,341.506z"/>
	</g>
</g>
<g>
	<g>
		<path d="M120.001,422c-16.542,0-30,13.459-30,30.002c0,16.542,13.458,30,30,30c16.542,0,30-13.458,30-30
			C150.001,435.459,136.543,422,120.001,422z M120.001,462.002c-5.514,0-10-4.486-10-10c0-5.516,4.486-10.002,10-10.002
			c5.514,0,10,4.486,10,10.002C130.001,457.516,125.515,462.002,120.001,462.002z"/>
	</g>
</g>
<g>
	<g>
		<path d="M402.001,422c-16.542,0-30,13.459-30,30.002c0,16.542,13.458,30,30,30s30-13.458,30-30
			C432.001,435.459,418.543,422,402.001,422z M402.001,462.002c-5.514,0-10-4.486-10-10c0-5.516,4.486-10.002,10-10.002
			c5.514,0,10,4.486,10,10.002C412.001,457.516,407.515,462.002,402.001,462.002z"/>
	</g>
</g>
<g>
	<g>
		<path d="M482.002,180c16.541,0,29.999-13.458,29.999-30V30c0-16.542-13.457-30-29.999-30H362.001
			c-16.542,0-29.999,13.458-29.999,30v120c0,16.542,13.457,30,29.999,30h50v122.699l-63.378-0.634L321.19,238.06
			c-2.762-6.445-11.168-26.06-37.004-26.06H50.234c-19.429,0-35.235,15.806-35.235,35.234v164.768h-4.998c-5.523,0-10,4.477-10,10
			V437c0,13.786,11.214,25.002,24.998,25.002H60.85c4.777,28.339,29.475,50,59.151,50c29.676,0,54.375-21.661,59.152-50h163.695
			c4.777,28.339,29.476,50,59.152,50c29.676,0,54.375-21.661,59.152-50h25.849c13.785,0,25-11.216,25-25.002v-14.998
			c0-5.523-4.477-10-10-10h-5V335.75c0-17.757-13.414-32.336-29.9-32.5l-35.1-0.35V180H482.002z M60.85,442.002H24.999
			c-2.709,0-4.998-2.291-4.998-5.002v-4.998h43.44C62.3,435.219,61.43,438.562,60.85,442.002z M160.001,452.027
			c-0.014,22.044-17.952,39.975-40,39.975c-22.056,0-40-17.944-40-40c0-22.058,17.944-40.002,40-40.002
			c22.048,0,39.986,17.931,40,39.977c0,0.008-0.001,0.017-0.001,0.025C160,452.011,160.001,452.02,160.001,452.027z M212.984,302
			h-63.682v-40h63.682V302z M442,452.002c0,0.004,0,0.009,0,0.013c-0.006,22.05-17.948,39.987-40,39.987
			c-22.048,0-39.986-17.931-40-39.975c0-0.008,0.001-0.017,0.001-0.025c0-0.009-0.001-0.018-0.001-0.025
			C362.014,429.931,379.952,412,402,412c22.052,0,39.994,17.938,40,39.989C442,451.993,442,451.998,442,452.002z M492.001,432.002
			V437c0,2.711-2.29,5.002-5,5.002h-25.849c-0.58-3.44-1.45-6.783-2.591-10H492.001z M466.901,323.249
			c5.569,0.056,10.1,5.663,10.1,12.501v36.252h-6.615c-5.523,0-10,4.477-10,10c0,5.522,4.477,10,10,10h6.615v20h-30.326
			C435.681,399.735,419.729,392,402,392c-29.676,0-54.375,21.662-59.152,50.002H232.983V322h73.129c3.361,0,6.498-1.688,8.348-4.495
			c1.851-2.807,2.167-6.355,0.843-9.444l-24.944-58.204c-0.322-0.747-0.68-1.556-1.113-2.403c-1.708-3.347-5.149-5.453-8.906-5.453
			H55.621c-5.523,0-10,4.478-10,10v60c0,5.522,4.477,10,10,10h157.362v120.002h-33.831C174.376,413.662,149.677,392,120.001,392
			c-17.729,0-33.681,7.735-44.674,20.002H34.999v-20h6.615c5.523,0,10-4.478,10-10c0-5.523-4.477-10-10-10h-6.615V247.234
			c0-8.4,6.834-15.234,15.235-15.234h233.952c9.22,0,14.267,3.778,18.621,13.939l30.002,70c1.561,3.644,5.127,6.02,9.091,6.06
			L466.901,323.249z M232.983,302v-40h40.821l17.143,40H232.983z M129.302,262v40H65.621v-40H129.302z M362.001,160
			c-5.514,0-9.999-4.486-9.999-10V30c0-5.514,4.485-10,9.999-10h120.001c5.514,0,9.999,4.486,9.999,10v120
			c0,5.514-4.485,10-9.999,10H362.001z"/>
	</g>
</g>
<g>
	<g>
		<path d="M422.002,42.881h-22.368c-5.523,0-10,4.477-10,10v44.736v29.5c0,5.522,4.477,10,10,10s10-4.478,10-10v-19.5h12.368
			c17.848,0,32.368-14.52,32.368-32.367C454.37,57.401,439.85,42.881,422.002,42.881z M422.002,87.617h-12.368V62.881h12.368
			c6.82,0,12.368,5.549,12.368,12.369C434.37,82.069,428.822,87.617,422.002,87.617z"/>
	</g>
</g>
<g>
	<g>
		<path d="M125.622,341.506h-0.235c-5.523,0-10,4.478-10,10c0,5.522,4.477,10,10,10h0.235c5.523,0,10-4.477,10-10
			C135.622,345.984,131.145,341.506,125.622,341.506z"/>
	</g>
</g>
<g>
	<g>
		<path d="M96.656,341.502H55.621c-5.523,0-10,4.477-10,10c0,5.523,4.477,10,10,10h41.035c5.523,0,10-4.478,10-10
			C106.656,345.979,102.179,341.502,96.656,341.502z"/>
	</g>
</g>
<g>
</g>
<g>
</g>
<g>
</g>
<g>
</g>
<g>
</g>
<g>
</g>
<g>
</g>
<g>
</g>
<g>
</g>
<g>
</g>
<g>
</g>
<g>
</g>
<g>
</g>
<g>
</g>
<g>
</g>
</svg>
