<?xml version="1.0" encoding="iso-8859-1"?>
<!-- Generator: Adobe Illustrator 19.0.0, SVG Export Plug-In . SVG Version: 6.00 Build 0)  -->
<svg version="1.1" id="Layer_1" xmlns="http://www.w3.org/2000/svg" xmlns:xlink="http://www.w3.org/1999/xlink" x="0px" y="0px"
	 viewBox="0 0 512 512" style="enable-background:new 0 0 512 512;" xml:space="preserve">
<g>
	<g>
		<path d="M445.727,0H255.881c-0.998,0-1.971,0.104-2.912,0.3H66.273c-7.861,0-14.234,6.374-14.234,14.234v364.379v118.853
			c0,7.86,6.372,14.234,14.234,14.234h379.454c7.861,0,14.234-6.374,14.234-14.234V378.913c0-0.047-0.007-0.091-0.007-0.139
			c0-0.047,0.007-0.091,0.007-0.139V257.167V135.702V14.234C459.961,6.374,453.588,0,445.727,0z M80.507,28.768h161.14v106.933
			v121.466v107.511H80.507V28.768z M431.493,483.532L431.493,483.532H80.507v-90.385h175.612h175.374V483.532z M431.493,364.402
			h-161.14v-93h161.14V364.402z M431.493,242.934L431.493,242.934h-161.14v-92.999h161.14V242.934z M431.493,121.468
			L431.493,121.468h-161.14v-93h161.14V121.468z"/>
	</g>
</g>
<g>
	<g>
		<path d="M209.265,129.83c-7.861,0-14.234,6.374-14.234,14.234v62.618c0,7.861,6.372,14.234,14.234,14.234
			c7.861,0,14.234-6.374,14.234-14.234v-62.618C223.499,136.204,217.127,129.83,209.265,129.83z"/>
	</g>
</g>
<g>
	<g>
		<path d="M219.333,239.317c-0.655-0.655-1.381-1.253-2.164-1.764c-0.769-0.512-1.594-0.954-2.462-1.31
			c-0.854-0.356-1.751-0.626-2.662-0.811c-1.836-0.37-3.729-0.37-5.565,0c-0.911,0.185-1.808,0.456-2.662,0.811
			c-0.854,0.356-1.68,0.797-2.448,1.31c-0.783,0.511-1.509,1.109-2.178,1.764c-0.655,0.655-1.238,1.382-1.765,2.165
			c-0.512,0.769-0.954,1.594-1.31,2.461c-0.356,0.855-0.626,1.751-0.811,2.662c-0.185,0.912-0.27,1.85-0.27,2.776
			c0,0.925,0.085,1.866,0.27,2.79c0.185,0.897,0.456,1.793,0.811,2.662c0.356,0.854,0.797,1.68,1.31,2.448
			c0.527,0.783,1.11,1.51,1.765,2.165c0.669,0.655,1.395,1.253,2.178,1.779c0.769,0.511,1.594,0.954,2.448,1.31
			c0.868,0.356,1.765,0.625,2.662,0.811c0.925,0.185,1.85,0.269,2.79,0.269c0.925,0,1.865-0.085,2.776-0.269
			c0.911-0.186,1.808-0.456,2.662-0.811c0.868-0.356,1.694-0.799,2.462-1.31c0.783-0.527,1.509-1.124,2.164-1.779
			c2.647-2.647,4.17-6.32,4.17-10.063S221.98,241.979,219.333,239.317z"/>
	</g>
</g>
<g>
	<g>
		<path d="M288.027,409.872c-7.861,0-14.234,6.374-14.234,14.234v5.694h-35.585v-5.694c0-7.86-6.372-14.234-14.234-14.234
			s-14.234,6.374-14.234,14.234v19.927c0,7.86,6.372,14.234,14.234,14.234h64.052c7.861,0,14.234-6.374,14.234-14.234v-19.927
			C302.261,416.246,295.888,409.872,288.027,409.872z"/>
	</g>
</g>
<g>
	<g>
		<path d="M368.123,60.735h-34.635c-7.861,0-14.234,6.374-14.234,14.234c0,7.86,6.373,14.234,14.234,14.234h34.635
			c7.861,0,14.234-6.374,14.234-14.234C382.356,67.109,375.984,60.735,368.123,60.735z"/>
	</g>
</g>
<g>
	<g>
		<path d="M368.123,182.49h-34.635c-7.861,0-14.234,6.374-14.234,14.234c0,7.86,6.373,14.234,14.234,14.234h34.635
			c7.861,0,14.234-6.374,14.234-14.234C382.356,188.864,375.984,182.49,368.123,182.49z"/>
	</g>
</g>
<g>
	<g>
		<path d="M368.123,304.245h-34.635c-7.861,0-14.234,6.374-14.234,14.234c0,7.86,6.373,14.234,14.234,14.234h34.635
			c7.861,0,14.234-6.374,14.234-14.234C382.356,310.619,375.982,304.245,368.123,304.245z"/>
	</g>
</g>
<g>
</g>
<g>
</g>
<g>
</g>
<g>
</g>
<g>
</g>
<g>
</g>
<g>
</g>
<g>
</g>
<g>
</g>
<g>
</g>
<g>
</g>
<g>
</g>
<g>
</g>
<g>
</g>
<g>
</g>
</svg>
